PathFileType	4	(X/Y/Z)	D:\TRACE\spot_10-12-23\spot_arm_body_motion_3_10-v60.trc
DataRate	CameraRate	NumFrames	NumMarkers	Units	OrigDataRate	OrigDataStartFrame	OrigNumFrames
100.00	100.00	      17	9	mm	100.00	876	      7000
Frame#	Time	front left toe			Front right toe			aft left toe			aft right toe			Arm			FL body			FR body			AL Body			AR Body			
		X1	Y1	Z1	X2	Y2	Z2	X3	Y3	Z3	X4	Y4	Z4	X5	Y5	Z5	X6	Y6	Z6	X7	Y7	Z7	X8	Y8	Z8	X9	Y9	Z9	

876	8.750	-190.01917	3.29120	-423.92340	217.40524	11.46472	-348.30554	-198.03767	24.73309	281.55612	214.49490	22.00891	256.68799	69.83140	805.81763	-746.70813	-87.24885	593.52356	-424.80853	65.16210	597.94861	-428.72742	-68.94726	582.52954	459.16257	81.13728	580.66095	457.79077	
877	8.760	-189.92393	3.37140	-424.03940	217.34819	11.40193	-348.43750	-198.08998	24.65890	281.50946	214.54675	21.88421	256.69675	69.19611	804.35205	-747.79553	-86.79733	593.86029	-425.12482	65.62404	598.08221	-429.00821	-68.90308	582.34924	458.90692	81.18326	580.51013	457.66208	
878	8.770	-189.81766	3.44026	-424.14722	217.25557	11.89772	-348.32986	-198.22789	24.59995	281.49341	214.52299	21.84585	256.79245	68.76727	802.25610	-750.13776	-85.88489	594.13348	-425.36777	66.41920	598.41742	-428.98230	-69.28787	581.81757	458.40298	81.18564	580.05615	457.64966	
879	8.780	-189.68579	3.61443	-424.29279	217.55579	12.31442	-347.55478	-198.37636	24.51132	281.45145	214.52371	21.89270	256.92810	66.49786	799.57343	-753.21454	-85.05833	594.39758	-425.34464	67.36018	598.75031	-428.76257	-69.42475	581.44501	458.83606	80.88145	579.63593	457.75500	
880	8.790	-189.52716	3.71512	-424.40640	218.08949	11.33017	-347.64709	-198.55501	24.35440	281.41373	214.54440	21.86453	257.06461	64.25908	796.46191	-756.67743	-84.08776	594.70300	-425.39307	68.35767	598.66248	-428.57303	-69.31718	581.50397	459.24283	80.65736	579.27081	458.04333	
881	8.800	-189.35719	3.82387	-424.45175	218.19891	10.95368	-347.48218	-198.58206	24.33890	281.40491	214.43538	21.87070	257.17328	60.97999	792.84338	-760.83606	-82.63899	594.46747	-425.06839	69.78767	598.26196	-428.13120	-69.45690	581.74841	459.67419	80.52393	579.16815	458.40570	
882	8.810	-189.21367	3.90910	-424.52551	216.12057	8.95105	-348.29712	-198.64291	24.50064	281.33826	214.23952	21.83951	257.21146	57.07595	789.24109	-765.01428	-81.48648	594.05701	-424.89691	70.75809	597.96649	-428.14566	-69.16562	581.92297	459.30591	80.81623	579.60394	458.97516	
883	8.820	-189.27573	3.88942	-424.51761	216.05290	8.65677	-348.39572	-198.69958	24.77541	281.34396	214.16203	21.82777	257.19019	54.67106	785.84729	-768.94324	-80.73020	593.30536	-424.60327	71.73647	597.02515	-427.29752	-68.50286	582.68073	459.45062	81.69620	580.29626	459.42209	
884	8.830	-189.53314	3.77552	-424.40692	216.27950	8.81202	-348.12469	-198.74980	25.03017	281.36465	214.06662	21.79518	257.17917	50.64858	782.11816	-771.43909	-80.20541	592.15570	-424.12018	72.43183	595.67603	-426.75839	-68.05409	583.41455	459.48874	82.65308	580.61786	459.53778	
885	8.840	-189.79709	3.52062	-424.20227	216.07666	8.77801	-348.18234	-198.62643	25.28545	281.43015	214.11923	21.76292	257.07678	48.56267	779.29614	-773.75995	-80.40270	591.21014	-423.85986	72.07465	594.82367	-427.50375	-65.73276	584.24750	460.23468	84.30443	581.37390	459.57175	
886	8.850	-190.16135	3.22948	-423.88809	215.19136	8.57024	-348.82553	-198.30394	25.49107	281.56915	214.22737	21.26699	256.79605	47.19715	777.31274	-775.63098	-80.88073	589.92682	-423.42972	71.63354	593.37201	-427.16742	-63.86223	584.94800	460.57632	86.25755	582.07355	459.47772	
887	8.860	-190.67874	2.81459	-423.72125	215.56299	9.04360	-348.47928	-197.95038	25.59669	281.68137	214.40117	21.26575	256.61014	46.89470	775.56647	-776.45673	-81.47539	588.41632	-423.08820	70.75027	592.14374	-427.44131	-61.51670	585.65424	460.94974	88.47369	582.54968	459.40833	
888	8.870	-190.99042	2.46036	-423.42188	215.15887	8.97371	-348.80624	-197.79987	25.92940	281.63153	214.50175	21.09507	256.29105	47.61024	774.75122	-776.69983	-82.30276	587.20618	-422.74850	70.12563	590.48523	-427.80829	-59.36239	586.37079	461.06067	91.07876	583.22632	459.12524	
889	8.880	-191.29781	2.17315	-423.13196	217.65561	11.21632	-349.01776	-197.50221	26.34503	281.66739	214.79381	20.88033	256.08890	48.85411	774.37976	-776.70752	-83.06253	586.18750	-422.39172	69.20513	589.36224	-427.90384	-56.85890	586.62292	461.31946	93.21069	583.26587	458.79834	
890	8.890	-191.41982	1.97895	-422.90210	217.42627	10.71625	-348.82547	-197.29308	26.62693	281.78537	215.02707	20.77382	256.05298	50.92671	774.40546	-776.04047	-83.68661	585.27032	-422.06860	68.83891	588.51849	-428.25980	-55.01728	586.78467	461.45203	95.14172	583.53082	458.49619	
891	8.900	-191.36987	1.99853	-422.81601	217.33180	10.58915	-348.85864	-197.16318	26.75814	281.89233	215.22868	20.60536	256.00119	53.65754	774.83838	-775.04724	-83.73148	584.76910	-421.81494	68.50298	587.71759	-428.06836	-53.38842	586.73029	461.49435	96.69123	583.23090	458.49753	
892	8.910	-191.51228	2.19057	-422.80417	218.50266	10.78678	-348.00684	-197.18983	26.76280	281.93832	215.30956	20.57871	255.93675	55.96367	776.48688	-774.93237	-83.31347	584.41571	-421.67871	69.10541	587.12531	-427.84851	-51.85035	586.30566	461.94614	98.00162	582.76270	458.62259	
